<svg xmlns="http://www.w3.org/2000/svg" width="124" height="124" style="fill: #eea287;" viewBox="0 0 125 125" x="0px" y="0px"><path d="M61.81885,37.36963A22.31061,22.31061,0,1,0,26.28418,64.35742L46.23291,90.62207A22.31051,22.31051,0,0,0,81.76709,63.63428L71.46582,50.07178l-6.52393,8.58936,8.55029,11.25732a11.95791,11.95791,0,0,1,0,14.41895,11.92,11.92,0,0,1-18.98437,0L42.04834,67.93359l.00024-.00055-7.489-9.86029A11.91931,11.91931,0,1,1,53.54346,43.6543l2.9906,3.93732,3.07831-4.053,3.44574-4.53717Z"/><path d="M97.44287,33.0957a22.33709,22.33709,0,0,0-31.26172,4.27393L46.23291,63.63428a22.09871,22.09871,0,0,0-2.45361,4.09814l8.43262,11.10205a11.93846,11.93846,0,0,1,2.2959-8.916L74.45654,43.6543A11.91931,11.91931,0,1,1,93.44043,58.07275L85.94873,67.937a23.91224,23.91224,0,0,1,.83447,16.08105l14.93262-19.66064A22.33705,22.33705,0,0,0,97.44287,33.0957Z"/><polygon points="55.105 83.884 55.105 83.884 55.105 83.884 55.105 83.884"/></svg>